<svg xmlns="http://www.w3.org/2000/svg" xmlns:xlink="http://www.w3.org/1999/xlink" width="500" zoomAndPan="magnify" viewBox="0 0 375 374.999991" height="500" preserveAspectRatio="xMidYMid meet" version="1.0"><defs><g/><clipPath id="id1"><path d="M 128.726562 66.90625 L 246.476562 66.90625 L 246.476562 204.15625 L 128.726562 204.15625 Z M 128.726562 66.90625 " clip-rule="nonzero"/></clipPath></defs><rect x="-37.5" width="450" fill="#ffffff" y="-37.499999" height="449.999989" fill-opacity="1"/><rect x="-37.5" width="450" fill="#efefef" y="-37.499999" height="449.999989" fill-opacity="1"/><rect x="-37.5" width="450" fill="#ffffff" y="-37.499999" height="449.999989" fill-opacity="1"/><rect x="-37.5" width="450" fill="#efefef" y="-37.499999" height="449.999989" fill-opacity="1"/><path fill="#000000" d="M 168.53125 155.136719 C 168.632812 154.890625 168.8125 154.757812 169.078125 154.742188 C 169.445312 154.710938 169.800781 154.644531 170.15625 154.542969 C 170.507812 154.441406 170.847656 154.308594 171.171875 154.140625 C 171.5 153.976562 171.804688 153.78125 172.09375 153.554688 C 172.382812 153.328125 172.648438 153.078125 172.886719 152.800781 C 173.125 152.523438 173.335938 152.226562 173.519531 151.910156 C 173.703125 151.589844 173.851562 151.257812 173.96875 150.914062 C 174.089844 150.566406 174.171875 150.210938 174.222656 149.847656 C 174.273438 149.484375 174.285156 149.121094 174.265625 148.753906 C 174.242188 148.390625 174.1875 148.03125 174.097656 147.675781 C 174.007812 147.320312 173.882812 146.976562 173.726562 146.644531 C 173.570312 146.316406 173.382812 146.003906 173.164062 145.707031 C 172.945312 145.414062 172.703125 145.140625 172.433594 144.894531 C 172.164062 144.644531 171.871094 144.425781 171.558594 144.234375 C 171.246094 144.042969 170.921875 143.886719 170.578125 143.757812 C 170.234375 143.628906 169.882812 143.535156 169.519531 143.476562 C 169.160156 143.417969 168.796875 143.390625 168.429688 143.402344 C 168.0625 143.414062 167.703125 143.457031 167.34375 143.539062 C 166.988281 143.621094 166.640625 143.734375 166.304688 143.882812 C 165.96875 144.027344 165.652344 144.207031 165.351562 144.417969 C 165.050781 144.625 164.773438 144.863281 164.519531 145.125 C 164.261719 145.386719 164.035156 145.671875 163.835938 145.980469 C 163.636719 146.285156 163.46875 146.609375 163.328125 146.949219 C 163.191406 147.289062 163.089844 147.636719 163.019531 147.996094 C 162.949219 148.355469 162.914062 148.71875 162.914062 149.085938 C 162.914062 150.457031 163.359375 151.667969 164.246094 152.714844 C 164.417969 152.917969 164.453125 153.144531 164.351562 153.394531 L 157.824219 169.070312 C 157.742188 169.28125 157.738281 169.492188 157.816406 169.703125 C 157.898438 169.917969 158.039062 170.074219 158.238281 170.179688 L 162.582031 172.390625 C 162.804688 172.523438 162.914062 172.71875 162.90625 172.980469 C 162.910156 173.351562 162.953125 173.71875 163.03125 174.085938 C 163.109375 174.449219 163.21875 174.800781 163.367188 175.144531 C 163.515625 175.488281 163.691406 175.8125 163.902344 176.117188 C 164.113281 176.425781 164.351562 176.710938 164.617188 176.96875 C 164.886719 177.230469 165.175781 177.460938 165.484375 177.664062 C 165.796875 177.871094 166.125 178.039062 166.472656 178.179688 C 166.816406 178.316406 167.171875 178.421875 167.539062 178.492188 C 167.90625 178.558594 168.273438 178.59375 168.648438 178.589844 C 169.019531 178.585938 169.386719 178.546875 169.753906 178.472656 C 170.117188 178.394531 170.46875 178.285156 170.8125 178.140625 C 171.15625 177.992188 171.480469 177.816406 171.789062 177.605469 C 172.097656 177.398438 172.382812 177.160156 172.644531 176.894531 C 172.90625 176.628906 173.140625 176.34375 173.34375 176.03125 C 173.546875 175.71875 173.722656 175.390625 173.863281 175.046875 C 174.003906 174.703125 174.109375 174.347656 174.179688 173.980469 C 174.25 173.617188 174.285156 173.246094 174.28125 172.875 C 174.28125 172.503906 174.242188 172.132812 174.167969 171.769531 C 174.09375 171.402344 173.984375 171.050781 173.839844 170.707031 C 173.699219 170.363281 173.523438 170.035156 173.316406 169.726562 C 173.105469 169.417969 172.871094 169.132812 172.605469 168.867188 C 172.34375 168.605469 172.054688 168.371094 171.746094 168.164062 C 171.4375 167.957031 171.109375 167.785156 170.765625 167.640625 C 170.421875 167.5 170.066406 167.390625 169.699219 167.320312 C 169.335938 167.246094 168.96875 167.210938 168.59375 167.210938 C 167.390625 167.214844 166.300781 167.570312 165.328125 168.277344 C 165.109375 168.445312 164.878906 168.46875 164.632812 168.347656 L 163.679688 167.863281 C 163.578125 167.8125 163.507812 167.734375 163.46875 167.625 C 163.425781 167.519531 163.429688 167.414062 163.46875 167.308594 Z M 168.59375 146.796875 C 168.898438 146.796875 169.191406 146.855469 169.46875 146.96875 C 169.75 147.085938 170 147.253906 170.214844 147.46875 C 170.429688 147.683594 170.59375 147.929688 170.710938 148.210938 C 170.824219 148.492188 170.882812 148.78125 170.882812 149.085938 C 170.882812 149.390625 170.824219 149.683594 170.710938 149.960938 C 170.59375 150.242188 170.429688 150.492188 170.214844 150.707031 C 170 150.921875 169.75 151.085938 169.46875 151.203125 C 169.191406 151.316406 168.898438 151.375 168.59375 151.375 C 168.289062 151.375 168 151.316406 167.71875 151.203125 C 167.4375 151.085938 167.191406 150.921875 166.976562 150.707031 C 166.761719 150.492188 166.59375 150.242188 166.480469 149.960938 C 166.363281 149.683594 166.304688 149.390625 166.304688 149.085938 C 166.304688 148.78125 166.359375 148.488281 166.476562 148.207031 C 166.59375 147.925781 166.757812 147.679688 166.972656 147.464844 C 167.1875 147.25 167.4375 147.085938 167.71875 146.96875 C 168 146.851562 168.289062 146.796875 168.59375 146.796875 Z M 168.59375 170.574219 C 168.898438 170.574219 169.191406 170.632812 169.46875 170.75 C 169.75 170.867188 170 171.03125 170.214844 171.246094 C 170.429688 171.460938 170.59375 171.707031 170.710938 171.988281 C 170.824219 172.269531 170.882812 172.5625 170.882812 172.867188 C 170.882812 173.167969 170.824219 173.460938 170.710938 173.742188 C 170.59375 174.023438 170.429688 174.269531 170.214844 174.484375 C 170 174.699219 169.75 174.863281 169.46875 174.980469 C 169.191406 175.097656 168.898438 175.15625 168.59375 175.15625 C 168.289062 175.15625 168 175.097656 167.71875 174.980469 C 167.4375 174.863281 167.191406 174.699219 166.976562 174.484375 C 166.761719 174.269531 166.59375 174.023438 166.480469 173.742188 C 166.363281 173.460938 166.304688 173.167969 166.304688 172.867188 C 166.308594 172.566406 166.371094 172.277344 166.488281 172 C 166.605469 171.722656 166.769531 171.476562 166.984375 171.265625 C 167.199219 171.054688 167.445312 170.894531 167.726562 170.78125 C 168.003906 170.664062 168.292969 170.609375 168.59375 170.609375 Z M 168.59375 170.574219 " fill-opacity="1" fill-rule="nonzero"/><path fill="#000000" d="M 174.695312 116.421875 C 174.691406 116.6875 174.5625 116.875 174.316406 116.984375 C 173.933594 117.160156 173.574219 117.375 173.234375 117.628906 C 172.898438 117.882812 172.59375 118.171875 172.320312 118.496094 C 172.050781 118.820312 171.816406 119.167969 171.621094 119.542969 C 171.425781 119.917969 171.273438 120.308594 171.167969 120.71875 C 171.058594 121.125 170.996094 121.542969 170.980469 121.964844 C 170.964844 122.386719 170.996094 122.804688 171.074219 123.21875 C 171.152344 123.636719 171.273438 124.035156 171.441406 124.425781 C 171.609375 124.8125 171.816406 125.179688 172.0625 125.519531 C 172.3125 125.863281 172.59375 126.171875 172.914062 126.453125 C 173.230469 126.730469 173.574219 126.972656 173.945312 127.171875 C 174.316406 127.375 174.703125 127.535156 175.109375 127.652344 C 175.515625 127.765625 175.929688 127.835938 176.351562 127.863281 C 176.773438 127.886719 177.191406 127.863281 177.609375 127.792969 C 178.027344 127.722656 178.429688 127.609375 178.820312 127.449219 C 179.214844 127.289062 179.582031 127.089844 179.929688 126.847656 C 180.277344 126.609375 180.589844 126.332031 180.878906 126.019531 C 181.164062 125.707031 181.410156 125.367188 181.621094 125 C 181.828125 124.636719 181.996094 124.25 182.121094 123.847656 C 182.246094 123.441406 182.324219 123.03125 182.355469 122.609375 C 182.386719 122.1875 182.371094 121.765625 182.3125 121.347656 C 182.25 120.929688 182.144531 120.523438 181.992188 120.128906 C 181.839844 119.734375 181.648438 119.363281 181.414062 119.011719 C 181.179688 118.660156 180.910156 118.339844 180.605469 118.046875 C 180.296875 117.753906 179.964844 117.5 179.601562 117.285156 C 179.363281 117.152344 179.246094 116.953125 179.242188 116.683594 L 179.242188 102.671875 C 179.238281 102.402344 179.332031 102.167969 179.511719 101.96875 L 188.917969 92.078125 C 189.101562 91.886719 189.316406 91.832031 189.570312 91.910156 C 190.082031 92.066406 190.601562 92.144531 191.136719 92.148438 C 191.535156 92.148438 191.929688 92.105469 192.324219 92.023438 C 192.714844 91.941406 193.089844 91.816406 193.457031 91.652344 C 193.820312 91.492188 194.164062 91.292969 194.488281 91.054688 C 194.808594 90.820312 195.105469 90.554688 195.371094 90.257812 C 195.636719 89.960938 195.871094 89.636719 196.070312 89.289062 C 196.269531 88.945312 196.429688 88.582031 196.550781 88.199219 C 196.675781 87.820312 196.753906 87.429688 196.796875 87.035156 C 196.835938 86.636719 196.835938 86.238281 196.792969 85.839844 C 196.746094 85.445312 196.664062 85.054688 196.539062 84.675781 C 196.414062 84.296875 196.25 83.933594 196.046875 83.589844 C 195.847656 83.246094 195.613281 82.925781 195.34375 82.628906 C 195.074219 82.332031 194.777344 82.070312 194.453125 81.835938 C 194.128906 81.601562 193.78125 81.40625 193.414062 81.246094 C 193.050781 81.085938 192.671875 80.964844 192.28125 80.886719 C 191.886719 80.804688 191.492188 80.765625 191.09375 80.769531 C 190.695312 80.773438 190.300781 80.816406 189.910156 80.902344 C 189.519531 80.988281 189.140625 81.117188 188.777344 81.28125 C 188.414062 81.445312 188.074219 81.648438 187.75 81.886719 C 187.429688 82.125 187.136719 82.394531 186.871094 82.691406 C 186.609375 82.992188 186.378906 83.316406 186.183594 83.664062 C 185.984375 84.011719 185.828125 84.375 185.707031 84.757812 C 185.589844 85.140625 185.511719 85.527344 185.472656 85.925781 C 185.433594 86.324219 185.441406 86.722656 185.484375 87.117188 C 185.53125 87.515625 185.621094 87.902344 185.746094 88.28125 C 185.839844 88.539062 185.796875 88.765625 185.617188 88.96875 L 175.25 99.863281 C 174.882812 100.253906 174.695312 100.71875 174.695312 101.253906 Z M 191.136719 84.167969 C 191.441406 84.167969 191.734375 84.226562 192.011719 84.34375 C 192.292969 84.460938 192.542969 84.625 192.753906 84.839844 C 192.96875 85.054688 193.136719 85.300781 193.253906 85.582031 C 193.367188 85.863281 193.425781 86.15625 193.425781 86.457031 C 193.425781 86.761719 193.367188 87.054688 193.253906 87.335938 C 193.136719 87.617188 192.96875 87.863281 192.753906 88.078125 C 192.542969 88.292969 192.292969 88.457031 192.011719 88.574219 C 191.734375 88.691406 191.441406 88.75 191.136719 88.75 C 190.832031 88.75 190.542969 88.691406 190.261719 88.574219 C 189.980469 88.457031 189.734375 88.292969 189.519531 88.078125 C 189.304688 87.863281 189.136719 87.617188 189.023438 87.335938 C 188.90625 87.054688 188.847656 86.761719 188.847656 86.457031 C 188.847656 86.15625 188.90625 85.863281 189.023438 85.582031 C 189.140625 85.304688 189.304688 85.058594 189.519531 84.84375 C 189.734375 84.628906 189.980469 84.460938 190.261719 84.34375 C 190.542969 84.230469 190.832031 84.171875 191.136719 84.167969 Z M 174.40625 122.144531 C 174.40625 121.839844 174.460938 121.546875 174.578125 121.269531 C 174.691406 120.988281 174.859375 120.738281 175.070312 120.523438 C 175.285156 120.308594 175.53125 120.140625 175.8125 120.023438 C 176.09375 119.90625 176.386719 119.847656 176.691406 119.847656 C 176.992188 119.847656 177.285156 119.902344 177.566406 120.019531 C 177.847656 120.132812 178.097656 120.300781 178.3125 120.515625 C 178.527344 120.730469 178.691406 120.976562 178.808594 121.257812 C 178.925781 121.539062 178.984375 121.828125 178.984375 122.132812 C 178.984375 122.4375 178.925781 122.730469 178.8125 123.011719 C 178.695312 123.292969 178.53125 123.539062 178.316406 123.753906 C 178.101562 123.96875 177.851562 124.136719 177.574219 124.25 C 177.292969 124.367188 177 124.425781 176.695312 124.425781 C 176.390625 124.429688 176.097656 124.375 175.816406 124.261719 C 175.53125 124.144531 175.28125 123.980469 175.066406 123.769531 C 174.847656 123.554688 174.683594 123.304688 174.566406 123.023438 C 174.449219 122.742188 174.386719 122.449219 174.386719 122.144531 Z M 174.40625 122.144531 " fill-opacity="1" fill-rule="nonzero"/><g clip-path="url(#id1)"><path fill="#000000" d="M 236.132812 118.597656 C 236.042969 118.34375 236.011719 118.085938 236.035156 117.820312 L 238.820312 92.773438 C 238.878906 92.238281 238.691406 91.804688 238.265625 91.480469 L 211.9375 71.441406 C 211.507812 71.113281 211.023438 70.921875 210.484375 70.878906 L 167.492188 66.90625 C 166.957031 66.859375 166.46875 66.996094 166.03125 67.3125 L 132.84375 91.355469 C 132.410156 91.675781 132.195312 92.101562 132.191406 92.640625 L 132.191406 123.121094 C 132.191406 123.660156 132.273438 124.1875 132.4375 124.699219 L 140.46875 149.695312 C 140.558594 149.945312 140.558594 150.199219 140.46875 150.453125 L 134.65625 164.921875 C 134.554688 165.167969 134.371094 165.300781 134.101562 165.316406 C 133.738281 165.34375 133.378906 165.410156 133.023438 165.503906 C 132.671875 165.601562 132.328125 165.734375 132 165.898438 C 131.671875 166.0625 131.363281 166.253906 131.074219 166.476562 C 130.78125 166.703125 130.515625 166.953125 130.273438 167.226562 C 130.03125 167.5 129.816406 167.796875 129.632812 168.113281 C 129.445312 168.429688 129.292969 168.761719 129.171875 169.109375 C 129.050781 169.457031 128.964844 169.808594 128.914062 170.171875 C 128.859375 170.535156 128.84375 170.902344 128.863281 171.265625 C 128.878906 171.632812 128.933594 171.996094 129.023438 172.351562 C 129.109375 172.707031 129.230469 173.050781 129.386719 173.382812 C 129.542969 173.714844 129.726562 174.03125 129.945312 174.328125 C 130.160156 174.625 130.402344 174.894531 130.671875 175.144531 C 130.941406 175.394531 131.230469 175.617188 131.542969 175.808594 C 131.855469 176.003906 132.179688 176.164062 132.523438 176.292969 C 132.867188 176.425781 133.21875 176.519531 133.582031 176.582031 C 133.941406 176.644531 134.308594 176.667969 134.671875 176.660156 C 135.039062 176.652344 135.402344 176.609375 135.761719 176.527344 C 136.117188 176.449219 136.464844 176.335938 136.800781 176.191406 C 137.136719 176.042969 137.457031 175.867188 137.757812 175.65625 C 138.0625 175.449219 138.339844 175.214844 138.597656 174.953125 C 138.851562 174.691406 139.082031 174.40625 139.28125 174.097656 C 139.484375 173.792969 139.652344 173.46875 139.792969 173.128906 C 139.929688 172.789062 140.035156 172.441406 140.105469 172.078125 C 140.179688 171.71875 140.214844 171.355469 140.214844 170.988281 C 140.210938 169.640625 139.78125 168.445312 138.917969 167.40625 C 138.757812 167.199219 138.722656 166.972656 138.8125 166.726562 L 145.109375 150.960938 C 145.320312 150.464844 145.335938 149.957031 145.164062 149.449219 L 136.824219 123.6875 C 136.738281 123.429688 136.699219 123.164062 136.699219 122.894531 L 136.699219 94.5625 C 136.695312 94.289062 136.804688 94.074219 137.027344 93.917969 L 167.6875 71.75 C 167.914062 71.585938 168.167969 71.523438 168.445312 71.558594 L 209.179688 75.308594 C 209.445312 75.335938 209.6875 75.429688 209.902344 75.589844 L 233.800781 93.777344 C 234.007812 93.941406 234.101562 94.15625 234.074219 94.421875 L 231.667969 116.078125 C 231.65625 116.195312 231.605469 116.296875 231.523438 116.382812 C 231.441406 116.46875 231.339844 116.519531 231.21875 116.535156 L 210.808594 119.082031 C 210.546875 119.113281 210.335938 119.023438 210.183594 118.808594 C 209.9375 118.464844 209.65625 118.152344 209.339844 117.875 C 209.023438 117.59375 208.679688 117.351562 208.308594 117.148438 C 207.9375 116.945312 207.550781 116.785156 207.144531 116.667969 C 206.738281 116.550781 206.324219 116.480469 205.90625 116.457031 C 205.484375 116.433594 205.0625 116.453125 204.648438 116.523438 C 204.230469 116.589844 203.828125 116.703125 203.433594 116.863281 C 203.042969 117.019531 202.675781 117.222656 202.328125 117.460938 C 201.980469 117.703125 201.664062 117.976562 201.378906 118.289062 C 201.09375 118.601562 200.847656 118.9375 200.636719 119.304688 C 200.425781 119.671875 200.257812 120.058594 200.132812 120.460938 C 200.011719 120.863281 199.929688 121.277344 199.898438 121.699219 C 199.867188 122.117188 199.878906 122.539062 199.941406 122.957031 C 200.003906 123.375 200.109375 123.78125 200.257812 124.175781 C 200.410156 124.566406 200.601562 124.941406 200.835938 125.292969 C 201.070312 125.644531 201.339844 125.964844 201.648438 126.257812 C 201.953125 126.546875 202.285156 126.800781 202.648438 127.019531 C 203.011719 127.234375 203.394531 127.410156 203.792969 127.542969 C 204.195312 127.671875 204.605469 127.757812 205.027344 127.800781 C 205.445312 127.839844 205.867188 127.832031 206.285156 127.78125 C 206.703125 127.726562 207.113281 127.628906 207.507812 127.484375 C 207.90625 127.339844 208.28125 127.15625 208.636719 126.929688 C 208.992188 126.699219 209.320312 126.4375 209.617188 126.136719 C 209.914062 125.835938 210.171875 125.507812 210.398438 125.148438 C 210.621094 124.789062 210.800781 124.410156 210.941406 124.011719 C 211.027344 123.757812 211.203125 123.613281 211.46875 123.570312 L 231.785156 121.035156 C 231.902344 121.019531 232.011719 121.042969 232.113281 121.101562 C 232.214844 121.164062 232.289062 121.25 232.328125 121.363281 L 241.03125 144.566406 C 241.121094 144.820312 241.058594 145.023438 240.84375 145.183594 L 230.445312 153.109375 C 230.011719 153.4375 229.777344 153.867188 229.730469 154.40625 L 228.621094 168.25 C 228.613281 168.363281 228.570312 168.457031 228.488281 168.535156 C 228.410156 168.617188 228.3125 168.65625 228.199219 168.664062 C 224.871094 168.691406 221.601562 168.269531 218.394531 167.390625 C 215.183594 166.511719 212.152344 165.214844 209.304688 163.496094 C 209.070312 163.355469 208.976562 163.152344 209.019531 162.886719 C 209.070312 162.59375 209.09375 162.300781 209.089844 162.007812 C 209.089844 161.632812 209.054688 161.261719 208.980469 160.894531 C 208.910156 160.53125 208.800781 160.175781 208.660156 159.828125 C 208.515625 159.484375 208.339844 159.15625 208.132812 158.84375 C 207.925781 158.535156 207.6875 158.246094 207.425781 157.984375 C 207.160156 157.71875 206.875 157.484375 206.5625 157.277344 C 206.253906 157.066406 205.925781 156.894531 205.578125 156.75 C 205.234375 156.605469 204.878906 156.5 204.511719 156.425781 C 204.144531 156.351562 203.777344 156.316406 203.402344 156.316406 C 203.03125 156.316406 202.660156 156.351562 202.292969 156.425781 C 201.925781 156.5 201.570312 156.605469 201.226562 156.75 C 200.882812 156.894531 200.554688 157.066406 200.242188 157.277344 C 199.933594 157.484375 199.644531 157.71875 199.378906 157.984375 C 199.117188 158.246094 198.878906 158.535156 198.671875 158.84375 C 198.464844 159.15625 198.289062 159.484375 198.148438 159.828125 C 198.003906 160.175781 197.898438 160.53125 197.824219 160.894531 C 197.75 161.261719 197.714844 161.632812 197.714844 162.007812 C 197.714844 162.378906 197.75 162.75 197.824219 163.117188 C 197.898438 163.484375 198.003906 163.839844 198.148438 164.183594 C 198.289062 164.527344 198.464844 164.855469 198.671875 165.167969 C 198.878906 165.476562 199.117188 165.765625 199.378906 166.027344 C 199.644531 166.292969 199.933594 166.527344 200.242188 166.738281 C 200.554688 166.945312 200.882812 167.121094 201.226562 167.261719 C 201.570312 167.40625 201.925781 167.511719 202.292969 167.585938 C 202.660156 167.660156 203.03125 167.695312 203.402344 167.695312 C 204.273438 167.691406 205.097656 167.496094 205.878906 167.105469 C 206.113281 166.972656 206.351562 166.972656 206.589844 167.105469 C 209.738281 169.046875 213.085938 170.53125 216.640625 171.554688 C 220.191406 172.582031 223.816406 173.117188 227.511719 173.15625 L 227.828125 173.15625 C 227.9375 173.15625 228.023438 173.195312 228.097656 173.273438 C 228.167969 173.355469 228.195312 173.445312 228.183594 173.550781 L 227.082031 187.210938 C 227.074219 187.324219 227.027344 187.421875 226.945312 187.5 C 226.863281 187.578125 226.765625 187.617188 226.648438 187.617188 L 200.234375 187.617188 C 199.984375 187.617188 199.753906 187.679688 199.542969 187.808594 C 199.332031 187.9375 199.167969 188.109375 199.054688 188.332031 L 193.980469 198.132812 C 193.933594 198.234375 193.855469 198.304688 193.746094 198.339844 C 193.640625 198.375 193.535156 198.367188 193.433594 198.316406 L 188.0625 195.78125 C 187.835938 195.660156 187.71875 195.46875 187.710938 195.210938 C 187.695312 194.839844 187.648438 194.472656 187.5625 194.113281 C 187.476562 193.753906 187.355469 193.402344 187.203125 193.066406 C 187.046875 192.730469 186.863281 192.410156 186.648438 192.109375 C 186.429688 191.808594 186.1875 191.53125 185.917969 191.277344 C 185.648438 191.023438 185.355469 190.800781 185.039062 190.605469 C 184.726562 190.40625 184.394531 190.242188 184.050781 190.113281 C 183.703125 189.980469 183.347656 189.882812 182.980469 189.820312 C 182.617188 189.757812 182.25 189.730469 181.878906 189.742188 C 181.507812 189.75 181.144531 189.796875 180.78125 189.878906 C 180.417969 189.960938 180.070312 190.074219 179.730469 190.222656 C 179.390625 190.375 179.070312 190.554688 178.765625 190.765625 C 178.464844 190.980469 178.183594 191.21875 177.925781 191.488281 C 177.667969 191.753906 177.441406 192.042969 177.242188 192.355469 C 177.039062 192.667969 176.871094 192.996094 176.738281 193.339844 C 176.601562 193.683594 176.5 194.039062 176.433594 194.402344 C 176.367188 194.769531 176.335938 195.136719 176.339844 195.503906 C 176.34375 195.875 176.386719 196.242188 176.460938 196.605469 C 176.539062 196.96875 176.648438 197.320312 176.792969 197.660156 C 176.941406 198 177.117188 198.324219 177.324219 198.632812 C 177.535156 198.9375 177.769531 199.21875 178.035156 199.480469 C 178.296875 199.742188 178.585938 199.972656 178.894531 200.175781 C 179.203125 200.382812 179.527344 200.554688 179.871094 200.695312 C 180.214844 200.835938 180.566406 200.941406 180.929688 201.011719 C 181.292969 201.082031 181.660156 201.117188 182.03125 201.117188 C 183.308594 201.097656 184.441406 200.691406 185.441406 199.894531 C 185.648438 199.730469 185.875 199.703125 186.117188 199.816406 L 195.082031 204.050781 C 195.285156 204.136719 195.492188 204.144531 195.703125 204.074219 C 195.910156 204.003906 196.070312 203.871094 196.183594 203.679688 L 201.984375 192.558594 C 202.109375 192.320312 202.308594 192.203125 202.574219 192.207031 L 230.425781 192.207031 C 230.65625 192.207031 230.855469 192.128906 231.027344 191.972656 C 231.195312 191.816406 231.289062 191.625 231.308594 191.394531 L 234.132812 156.378906 C 234.152344 156.105469 234.269531 155.890625 234.488281 155.726562 L 245.933594 146.980469 C 246.125 146.835938 246.25 146.644531 246.316406 146.414062 C 246.382812 146.183594 246.371094 145.957031 246.285156 145.730469 Z M 132.226562 170.953125 C 132.226562 170.648438 132.285156 170.359375 132.398438 170.078125 C 132.515625 169.796875 132.679688 169.546875 132.894531 169.332031 C 133.105469 169.117188 133.355469 168.949219 133.632812 168.832031 C 133.914062 168.714844 134.207031 168.65625 134.511719 168.65625 C 134.816406 168.65625 135.105469 168.710938 135.386719 168.828125 C 135.667969 168.945312 135.917969 169.109375 136.132812 169.324219 C 136.347656 169.539062 136.515625 169.785156 136.628906 170.066406 C 136.746094 170.347656 136.804688 170.636719 136.804688 170.941406 C 136.808594 171.246094 136.75 171.539062 136.632812 171.820312 C 136.515625 172.101562 136.351562 172.347656 136.136719 172.5625 C 135.921875 172.777344 135.675781 172.945312 135.394531 173.0625 C 135.113281 173.175781 134.820312 173.234375 134.515625 173.234375 C 134.214844 173.238281 133.921875 173.179688 133.640625 173.0625 C 133.359375 172.949219 133.109375 172.785156 132.894531 172.570312 C 132.679688 172.355469 132.511719 172.109375 132.394531 171.828125 C 132.277344 171.550781 132.21875 171.257812 132.21875 170.953125 Z M 205.59375 124.425781 C 205.292969 124.425781 205 124.367188 204.71875 124.25 C 204.4375 124.136719 204.191406 123.96875 203.976562 123.753906 C 203.761719 123.539062 203.59375 123.292969 203.480469 123.011719 C 203.363281 122.730469 203.304688 122.4375 203.304688 122.132812 C 203.304688 121.828125 203.363281 121.539062 203.480469 121.257812 C 203.597656 120.976562 203.765625 120.730469 203.980469 120.515625 C 204.195312 120.300781 204.441406 120.132812 204.722656 120.019531 C 205.003906 119.902344 205.296875 119.847656 205.601562 119.847656 C 205.90625 119.847656 206.199219 119.90625 206.476562 120.023438 C 206.757812 120.140625 207.003906 120.308594 207.21875 120.523438 C 207.433594 120.738281 207.597656 120.988281 207.714844 121.269531 C 207.828125 121.546875 207.886719 121.839844 207.886719 122.144531 C 207.882812 122.449219 207.824219 122.738281 207.707031 123.019531 C 207.589844 123.296875 207.425781 123.546875 207.210938 123.757812 C 206.996094 123.972656 206.75 124.136719 206.46875 124.253906 C 206.191406 124.367188 205.898438 124.425781 205.59375 124.425781 Z M 201.113281 162.023438 C 201.113281 161.71875 201.171875 161.429688 201.289062 161.148438 C 201.402344 160.867188 201.570312 160.621094 201.785156 160.40625 C 202 160.191406 202.246094 160.023438 202.527344 159.910156 C 202.808594 159.792969 203.097656 159.734375 203.402344 159.734375 C 203.707031 159.734375 204 159.792969 204.277344 159.910156 C 204.558594 160.023438 204.808594 160.191406 205.023438 160.40625 C 205.238281 160.621094 205.402344 160.867188 205.519531 161.148438 C 205.632812 161.429688 205.691406 161.71875 205.691406 162.023438 C 205.691406 162.328125 205.632812 162.621094 205.519531 162.898438 C 205.402344 163.179688 205.238281 163.429688 205.023438 163.644531 C 204.808594 163.859375 204.558594 164.023438 204.277344 164.140625 C 204 164.253906 203.707031 164.3125 203.402344 164.3125 C 203.097656 164.3125 202.808594 164.253906 202.527344 164.140625 C 202.246094 164.023438 202 163.859375 201.785156 163.644531 C 201.570312 163.429688 201.402344 163.179688 201.289062 162.898438 C 201.171875 162.621094 201.113281 162.328125 201.113281 162.023438 Z M 182.039062 197.675781 C 181.738281 197.675781 181.445312 197.621094 181.164062 197.503906 C 180.882812 197.386719 180.632812 197.222656 180.417969 197.007812 C 180.203125 196.796875 180.035156 196.546875 179.917969 196.265625 C 179.800781 195.988281 179.742188 195.695312 179.742188 195.390625 C 179.742188 195.085938 179.800781 194.792969 179.914062 194.515625 C 180.03125 194.234375 180.195312 193.984375 180.410156 193.769531 C 180.625 193.554688 180.871094 193.386719 181.152344 193.269531 C 181.433594 193.15625 181.726562 193.097656 182.027344 193.09375 C 182.332031 193.09375 182.625 193.152344 182.90625 193.269531 C 183.1875 193.386719 183.433594 193.550781 183.648438 193.765625 C 183.863281 193.980469 184.03125 194.226562 184.148438 194.507812 C 184.261719 194.789062 184.320312 195.082031 184.320312 195.386719 C 184.324219 195.6875 184.265625 195.980469 184.148438 196.261719 C 184.035156 196.542969 183.871094 196.789062 183.65625 197.003906 C 183.441406 197.21875 183.195312 197.382812 182.914062 197.5 C 182.636719 197.617188 182.34375 197.675781 182.039062 197.675781 Z M 182.039062 197.675781 " fill-opacity="1" fill-rule="nonzero"/></g><path fill="#000000" d="M 179.292969 132.6875 C 179.175781 132.929688 178.980469 133.050781 178.710938 133.058594 L 174.203125 133.058594 C 173.933594 133.050781 173.742188 132.929688 173.621094 132.6875 C 173.425781 132.3125 173.191406 131.964844 172.917969 131.644531 C 172.644531 131.324219 172.339844 131.035156 172.003906 130.78125 C 171.667969 130.527344 171.304688 130.316406 170.921875 130.140625 C 170.535156 129.96875 170.136719 129.839844 169.722656 129.753906 C 169.3125 129.671875 168.894531 129.632812 168.472656 129.640625 C 168.050781 129.648438 167.632812 129.703125 167.222656 129.804688 C 166.816406 129.90625 166.421875 130.050781 166.042969 130.238281 C 165.667969 130.425781 165.3125 130.65625 164.988281 130.921875 C 164.660156 131.1875 164.367188 131.488281 164.105469 131.820312 C 163.847656 132.152344 163.625 132.507812 163.445312 132.890625 C 163.265625 133.269531 163.128906 133.667969 163.035156 134.078125 C 162.941406 134.492188 162.894531 134.90625 162.894531 135.328125 C 162.894531 135.75 162.941406 136.167969 163.035156 136.578125 C 163.128906 136.992188 163.265625 137.386719 163.445312 137.769531 C 163.625 138.148438 163.847656 138.507812 164.105469 138.839844 C 164.367188 139.171875 164.660156 139.46875 164.988281 139.738281 C 165.3125 140.003906 165.667969 140.230469 166.042969 140.417969 C 166.421875 140.609375 166.816406 140.753906 167.222656 140.855469 C 167.632812 140.953125 168.050781 141.007812 168.472656 141.019531 C 168.894531 141.027344 169.3125 140.988281 169.722656 140.902344 C 170.136719 140.820312 170.535156 140.691406 170.921875 140.515625 C 171.304688 140.34375 171.667969 140.128906 172.003906 139.875 C 172.339844 139.625 172.644531 139.335938 172.917969 139.015625 C 173.191406 138.691406 173.425781 138.34375 173.621094 137.972656 C 173.742188 137.730469 173.933594 137.605469 174.203125 137.601562 L 178.710938 137.601562 C 178.980469 137.605469 179.175781 137.730469 179.292969 137.972656 C 179.488281 138.347656 179.722656 138.695312 179.996094 139.015625 C 180.269531 139.339844 180.578125 139.628906 180.914062 139.882812 C 181.25 140.136719 181.613281 140.351562 182 140.523438 C 182.382812 140.699219 182.78125 140.828125 183.195312 140.910156 C 183.609375 140.996094 184.03125 141.035156 184.453125 141.027344 C 184.875 141.019531 185.289062 140.964844 185.703125 140.863281 C 186.113281 140.761719 186.507812 140.617188 186.882812 140.429688 C 187.261719 140.238281 187.613281 140.011719 187.941406 139.746094 C 188.269531 139.476562 188.5625 139.175781 188.824219 138.84375 C 189.085938 138.511719 189.304688 138.15625 189.488281 137.773438 C 189.667969 137.390625 189.804688 136.996094 189.898438 136.582031 C 189.992188 136.167969 190.039062 135.753906 190.039062 135.328125 C 190.039062 134.90625 189.992188 134.488281 189.898438 134.078125 C 189.804688 133.664062 189.667969 133.265625 189.488281 132.886719 C 189.304688 132.503906 189.085938 132.148438 188.824219 131.8125 C 188.5625 131.480469 188.269531 131.179688 187.941406 130.914062 C 187.613281 130.648438 187.261719 130.417969 186.882812 130.230469 C 186.507812 130.042969 186.113281 129.898438 185.703125 129.796875 C 185.289062 129.695312 184.875 129.640625 184.453125 129.632812 C 184.03125 129.625 183.609375 129.664062 183.195312 129.746094 C 182.78125 129.832031 182.382812 129.960938 182 130.136719 C 181.613281 130.308594 181.25 130.523438 180.914062 130.777344 C 180.578125 131.03125 180.269531 131.320312 179.996094 131.640625 C 179.722656 131.964844 179.488281 132.3125 179.292969 132.6875 Z M 184.292969 137.609375 C 183.992188 137.609375 183.699219 137.550781 183.417969 137.4375 C 183.136719 137.320312 182.890625 137.15625 182.675781 136.941406 C 182.460938 136.726562 182.296875 136.476562 182.179688 136.195312 C 182.0625 135.917969 182.003906 135.625 182.003906 135.320312 C 182.003906 135.015625 182.0625 134.726562 182.179688 134.445312 C 182.296875 134.164062 182.460938 133.917969 182.675781 133.703125 C 182.890625 133.488281 183.136719 133.320312 183.417969 133.207031 C 183.699219 133.089844 183.992188 133.03125 184.292969 133.03125 C 184.597656 133.03125 184.890625 133.089844 185.171875 133.207031 C 185.453125 133.320312 185.699219 133.488281 185.914062 133.703125 C 186.128906 133.917969 186.292969 134.164062 186.410156 134.445312 C 186.527344 134.726562 186.585938 135.015625 186.585938 135.320312 C 186.585938 135.625 186.527344 135.917969 186.414062 136.199219 C 186.296875 136.480469 186.132812 136.726562 185.917969 136.941406 C 185.703125 137.15625 185.453125 137.324219 185.171875 137.4375 C 184.890625 137.554688 184.597656 137.613281 184.292969 137.609375 Z M 170.847656 135.320312 C 170.851562 135.625 170.792969 135.917969 170.675781 136.199219 C 170.5625 136.480469 170.398438 136.730469 170.183594 136.945312 C 169.96875 137.160156 169.71875 137.328125 169.441406 137.441406 C 169.160156 137.558594 168.867188 137.617188 168.5625 137.621094 C 168.257812 137.621094 167.964844 137.5625 167.683594 137.445312 C 167.402344 137.328125 167.15625 137.164062 166.941406 136.949219 C 166.726562 136.734375 166.558594 136.484375 166.445312 136.203125 C 166.328125 135.921875 166.269531 135.628906 166.269531 135.328125 C 166.269531 135.023438 166.328125 134.730469 166.445312 134.449219 C 166.5625 134.167969 166.730469 133.921875 166.945312 133.707031 C 167.160156 133.492188 167.410156 133.328125 167.691406 133.210938 C 167.972656 133.09375 168.265625 133.039062 168.566406 133.039062 C 168.871094 133.035156 169.167969 133.089844 169.449219 133.207031 C 169.730469 133.320312 169.980469 133.484375 170.199219 133.699219 C 170.414062 133.914062 170.582031 134.160156 170.699219 134.441406 C 170.816406 134.722656 170.875 135.015625 170.875 135.320312 Z M 170.847656 135.320312 " fill-opacity="1" fill-rule="nonzero"/><path fill="#000000" d="M 194.933594 135.320312 C 194.933594 135.957031 195.035156 136.574219 195.242188 137.175781 C 195.453125 137.777344 195.75 138.328125 196.144531 138.828125 C 196.535156 139.328125 197 139.753906 197.53125 140.097656 C 198.066406 140.441406 198.644531 140.691406 199.261719 140.84375 C 199.878906 140.996094 200.503906 141.042969 201.136719 140.984375 C 201.769531 140.925781 202.375 140.769531 202.957031 140.507812 C 203.535156 140.246094 204.054688 139.898438 204.519531 139.460938 C 204.984375 139.027344 205.363281 138.527344 205.65625 137.960938 C 205.777344 137.722656 205.96875 137.597656 206.238281 137.59375 L 219.914062 137.59375 C 220.027344 137.589844 220.121094 137.628906 220.203125 137.707031 C 220.28125 137.789062 220.320312 137.886719 220.320312 138 L 220.320312 146.03125 C 220.320312 146.140625 220.277344 146.238281 220.199219 146.316406 C 220.121094 146.394531 220.023438 146.433594 219.914062 146.433594 L 182.585938 146.433594 C 182.363281 146.433594 182.171875 146.515625 182.015625 146.671875 C 181.855469 146.832031 181.777344 147.023438 181.777344 147.246094 L 181.777344 179.144531 C 181.777344 179.367188 181.855469 179.558594 182.015625 179.71875 C 182.171875 179.875 182.363281 179.957031 182.585938 179.957031 L 197.6875 179.957031 C 197.953125 179.960938 198.136719 180.082031 198.242188 180.324219 C 198.417969 180.710938 198.632812 181.070312 198.890625 181.40625 C 199.144531 181.742188 199.433594 182.046875 199.757812 182.320312 C 200.082031 182.589844 200.429688 182.824219 200.804688 183.019531 C 201.179688 183.214844 201.570312 183.363281 201.980469 183.472656 C 202.390625 183.578125 202.804688 183.640625 203.226562 183.65625 C 203.648438 183.667969 204.066406 183.636719 204.484375 183.558594 C 204.898438 183.480469 205.300781 183.359375 205.6875 183.191406 C 206.074219 183.023438 206.441406 182.8125 206.78125 182.566406 C 207.121094 182.316406 207.433594 182.035156 207.710938 181.714844 C 207.988281 181.398438 208.230469 181.054688 208.429688 180.683594 C 208.632812 180.3125 208.792969 179.921875 208.90625 179.515625 C 209.023438 179.109375 209.089844 178.695312 209.113281 178.273438 C 209.136719 177.851562 209.113281 177.433594 209.042969 177.015625 C 208.972656 176.597656 208.859375 176.195312 208.699219 175.804688 C 208.539062 175.414062 208.339844 175.042969 208.097656 174.695312 C 207.855469 174.351562 207.578125 174.035156 207.265625 173.75 C 206.953125 173.464844 206.613281 173.21875 206.246094 173.007812 C 205.878906 172.800781 205.496094 172.632812 205.089844 172.511719 C 204.6875 172.386719 204.273438 172.308594 203.851562 172.277344 C 203.429688 172.246094 203.011719 172.261719 202.59375 172.324219 C 202.175781 172.386719 201.769531 172.492188 201.375 172.644531 C 200.980469 172.796875 200.609375 172.988281 200.257812 173.222656 C 199.90625 173.460938 199.585938 173.730469 199.292969 174.035156 C 199.003906 174.34375 198.75 174.679688 198.535156 175.039062 C 198.402344 175.265625 198.203125 175.378906 197.945312 175.382812 L 186.714844 175.382812 C 186.605469 175.382812 186.511719 175.34375 186.433594 175.265625 C 186.355469 175.1875 186.316406 175.089844 186.320312 174.980469 L 186.320312 151.375 C 186.320312 151.265625 186.359375 151.171875 186.4375 151.09375 C 186.511719 151.015625 186.605469 150.972656 186.714844 150.972656 L 224.042969 150.972656 C 224.265625 150.972656 224.457031 150.890625 224.617188 150.734375 C 224.773438 150.574219 224.851562 150.382812 224.851562 150.160156 L 224.851562 133.839844 C 224.851562 133.617188 224.773438 133.425781 224.617188 133.269531 C 224.457031 133.109375 224.265625 133.03125 224.042969 133.03125 L 206.238281 133.03125 C 205.96875 133.027344 205.777344 132.902344 205.65625 132.660156 C 205.363281 132.097656 204.984375 131.597656 204.519531 131.164062 C 204.054688 130.726562 203.535156 130.378906 202.957031 130.117188 C 202.375 129.855469 201.769531 129.695312 201.136719 129.640625 C 200.503906 129.582031 199.878906 129.628906 199.261719 129.78125 C 198.644531 129.933594 198.066406 130.179688 197.53125 130.527344 C 197 130.871094 196.535156 131.292969 196.144531 131.796875 C 195.75 132.296875 195.453125 132.847656 195.242188 133.449219 C 195.035156 134.046875 194.933594 134.667969 194.933594 135.304688 Z M 201.097656 177.972656 C 201.097656 177.667969 201.152344 177.378906 201.269531 177.097656 C 201.386719 176.816406 201.550781 176.570312 201.765625 176.355469 C 201.980469 176.140625 202.230469 175.972656 202.507812 175.859375 C 202.789062 175.742188 203.082031 175.683594 203.386719 175.683594 C 203.6875 175.683594 203.980469 175.742188 204.261719 175.859375 C 204.542969 175.972656 204.789062 176.140625 205.003906 176.355469 C 205.21875 176.570312 205.382812 176.816406 205.5 177.097656 C 205.617188 177.378906 205.675781 177.667969 205.675781 177.972656 C 205.675781 178.277344 205.617188 178.570312 205.5 178.851562 C 205.382812 179.128906 205.21875 179.378906 205.003906 179.59375 C 204.789062 179.808594 204.542969 179.972656 204.261719 180.089844 C 203.980469 180.207031 203.6875 180.261719 203.386719 180.261719 C 203.082031 180.261719 202.792969 180.199219 202.515625 180.082031 C 202.238281 179.964844 201.992188 179.796875 201.78125 179.585938 C 201.566406 179.371094 201.402344 179.125 201.289062 178.84375 C 201.171875 178.566406 201.113281 178.273438 201.113281 177.972656 Z M 200.601562 133.058594 C 200.910156 133.046875 201.207031 133.097656 201.492188 133.207031 C 201.777344 133.316406 202.03125 133.476562 202.253906 133.6875 C 202.476562 133.898438 202.648438 134.144531 202.769531 134.425781 C 202.894531 134.707031 202.957031 135 202.960938 135.308594 C 202.96875 135.613281 202.914062 135.910156 202.800781 136.195312 C 202.6875 136.480469 202.523438 136.730469 202.308594 136.949219 C 202.09375 137.167969 201.84375 137.335938 201.5625 137.457031 C 201.28125 137.574219 200.984375 137.636719 200.679688 137.636719 C 200.375 137.636719 200.078125 137.578125 199.796875 137.460938 C 199.511719 137.34375 199.261719 137.175781 199.046875 136.957031 C 198.832031 136.742188 198.667969 136.488281 198.550781 136.207031 C 198.4375 135.921875 198.378906 135.628906 198.382812 135.320312 C 198.382812 135.023438 198.441406 134.734375 198.554688 134.457031 C 198.667969 134.179688 198.828125 133.9375 199.035156 133.722656 C 199.246094 133.511719 199.488281 133.34375 199.761719 133.226562 C 200.035156 133.109375 200.320312 133.046875 200.621094 133.039062 Z M 200.601562 133.058594 " fill-opacity="1" fill-rule="nonzero"/><path fill="#000000" d="M 185.449219 122.144531 C 185.449219 122.820312 185.5625 123.476562 185.796875 124.109375 C 186.03125 124.746094 186.363281 125.320312 186.800781 125.835938 C 187.238281 126.351562 187.753906 126.773438 188.339844 127.105469 C 188.929688 127.4375 189.558594 127.660156 190.226562 127.765625 C 190.890625 127.875 191.558594 127.863281 192.21875 127.734375 C 192.882812 127.605469 193.503906 127.367188 194.082031 127.019531 C 194.660156 126.667969 195.160156 126.230469 195.582031 125.699219 C 196.003906 125.171875 196.320312 124.589844 196.535156 123.945312 C 196.746094 123.304688 196.84375 122.648438 196.824219 121.972656 C 196.800781 121.296875 196.664062 120.644531 196.410156 120.019531 C 196.15625 119.390625 195.804688 118.828125 195.347656 118.328125 C 194.894531 117.828125 194.367188 117.421875 193.769531 117.109375 C 193.527344 116.988281 193.40625 116.796875 193.398438 116.527344 L 193.398438 111.523438 C 193.40625 111.253906 193.527344 111.0625 193.769531 110.941406 C 194.144531 110.746094 194.492188 110.511719 194.8125 110.238281 C 195.132812 109.964844 195.421875 109.660156 195.675781 109.324219 C 195.929688 108.984375 196.140625 108.625 196.316406 108.242188 C 196.488281 107.855469 196.617188 107.457031 196.703125 107.042969 C 196.785156 106.628906 196.824219 106.210938 196.816406 105.789062 C 196.808594 105.367188 196.753906 104.953125 196.652344 104.542969 C 196.550781 104.132812 196.40625 103.738281 196.21875 103.363281 C 196.027344 102.984375 195.800781 102.632812 195.535156 102.304688 C 195.269531 101.980469 194.96875 101.6875 194.636719 101.425781 C 194.304688 101.164062 193.949219 100.945312 193.566406 100.765625 C 193.1875 100.582031 192.789062 100.445312 192.378906 100.355469 C 191.964844 100.261719 191.550781 100.214844 191.128906 100.214844 C 190.707031 100.214844 190.289062 100.261719 189.878906 100.355469 C 189.464844 100.445312 189.070312 100.582031 188.6875 100.765625 C 188.308594 100.945312 187.953125 101.164062 187.621094 101.425781 C 187.289062 101.6875 186.988281 101.980469 186.722656 102.304688 C 186.453125 102.632812 186.226562 102.984375 186.039062 103.363281 C 185.851562 103.738281 185.707031 104.132812 185.605469 104.542969 C 185.503906 104.953125 185.449219 105.367188 185.441406 105.789062 C 185.433594 106.210938 185.46875 106.628906 185.554688 107.042969 C 185.640625 107.457031 185.769531 107.855469 185.941406 108.242188 C 186.113281 108.625 186.328125 108.984375 186.582031 109.324219 C 186.835938 109.660156 187.121094 109.964844 187.445312 110.238281 C 187.765625 110.511719 188.113281 110.746094 188.488281 110.941406 C 188.726562 111.0625 188.851562 111.253906 188.855469 111.523438 L 188.855469 116.527344 C 188.851562 116.796875 188.726562 116.988281 188.488281 117.109375 C 188.027344 117.347656 187.609375 117.648438 187.234375 118.003906 C 186.855469 118.359375 186.535156 118.757812 186.265625 119.203125 C 186 119.648438 185.792969 120.117188 185.65625 120.617188 C 185.515625 121.117188 185.449219 121.625 185.449219 122.144531 Z M 191.136719 124.425781 C 190.832031 124.425781 190.539062 124.367188 190.261719 124.25 C 189.980469 124.136719 189.730469 123.96875 189.515625 123.753906 C 189.300781 123.539062 189.136719 123.292969 189.019531 123.011719 C 188.90625 122.730469 188.847656 122.4375 188.847656 122.132812 C 188.847656 121.828125 188.90625 121.539062 189.023438 121.257812 C 189.140625 120.976562 189.304688 120.730469 189.519531 120.515625 C 189.738281 120.300781 189.984375 120.132812 190.265625 120.019531 C 190.546875 119.902344 190.839844 119.847656 191.144531 119.847656 C 191.445312 119.847656 191.738281 119.90625 192.019531 120.023438 C 192.300781 120.140625 192.546875 120.308594 192.761719 120.523438 C 192.976562 120.738281 193.140625 120.988281 193.253906 121.269531 C 193.371094 121.546875 193.425781 121.839844 193.425781 122.144531 C 193.425781 122.449219 193.367188 122.738281 193.25 123.019531 C 193.132812 123.296875 192.96875 123.546875 192.753906 123.757812 C 192.539062 123.972656 192.289062 124.136719 192.011719 124.253906 C 191.730469 124.367188 191.441406 124.425781 191.136719 124.425781 Z M 191.136719 103.625 C 191.441406 103.625 191.734375 103.683594 192.011719 103.796875 C 192.292969 103.914062 192.542969 104.078125 192.753906 104.292969 C 192.96875 104.507812 193.136719 104.757812 193.253906 105.039062 C 193.367188 105.316406 193.425781 105.609375 193.425781 105.914062 C 193.425781 106.21875 193.367188 106.507812 193.253906 106.789062 C 193.136719 107.070312 192.96875 107.316406 192.753906 107.53125 C 192.542969 107.746094 192.292969 107.914062 192.011719 108.03125 C 191.734375 108.144531 191.441406 108.203125 191.136719 108.203125 C 190.832031 108.203125 190.542969 108.144531 190.261719 108.03125 C 189.980469 107.914062 189.734375 107.746094 189.519531 107.53125 C 189.304688 107.316406 189.136719 107.070312 189.023438 106.789062 C 188.90625 106.507812 188.847656 106.21875 188.847656 105.914062 C 188.847656 105.609375 188.90625 105.320312 189.023438 105.039062 C 189.140625 104.757812 189.304688 104.511719 189.519531 104.296875 C 189.734375 104.082031 189.980469 103.917969 190.261719 103.800781 C 190.542969 103.683594 190.832031 103.625 191.136719 103.625 Z M 191.136719 103.625 " fill-opacity="1" fill-rule="nonzero"/><path fill="#000000" d="M 168.59375 182.792969 C 167.871094 182.792969 167.175781 182.925781 166.503906 183.195312 C 165.832031 183.464844 165.234375 183.851562 164.710938 184.351562 C 164.519531 184.53125 164.304688 184.5625 164.070312 184.445312 L 148.449219 176.757812 C 148.347656 176.707031 148.273438 176.628906 148.234375 176.523438 C 148.195312 176.414062 148.195312 176.308594 148.234375 176.203125 L 157.492188 153.003906 C 157.695312 152.5 157.726562 151.984375 157.585938 151.457031 L 150.121094 122.726562 C 150.058594 122.464844 150.023438 122.195312 150.023438 121.925781 L 150.023438 105.597656 C 150.027344 105.328125 150.152344 105.132812 150.394531 105.015625 C 150.769531 104.820312 151.117188 104.585938 151.4375 104.3125 C 151.761719 104.039062 152.046875 103.730469 152.304688 103.394531 C 152.558594 103.058594 152.769531 102.695312 152.945312 102.308594 C 153.117188 101.925781 153.246094 101.523438 153.332031 101.109375 C 153.417969 100.695312 153.457031 100.277344 153.449219 99.855469 C 153.441406 99.433594 153.386719 99.015625 153.285156 98.605469 C 153.183594 98.195312 153.039062 97.800781 152.851562 97.421875 C 152.660156 97.046875 152.433594 96.691406 152.167969 96.363281 C 151.898438 96.039062 151.597656 95.742188 151.265625 95.480469 C 150.933594 95.222656 150.578125 95 150.195312 94.820312 C 149.8125 94.636719 149.417969 94.5 149.003906 94.40625 C 148.589844 94.316406 148.175781 94.269531 147.75 94.269531 C 147.328125 94.269531 146.910156 94.316406 146.5 94.40625 C 146.085938 94.5 145.691406 94.636719 145.308594 94.820312 C 144.925781 95 144.570312 95.222656 144.238281 95.480469 C 143.902344 95.742188 143.605469 96.039062 143.335938 96.363281 C 143.070312 96.691406 142.84375 97.046875 142.652344 97.421875 C 142.464844 97.800781 142.320312 98.195312 142.21875 98.605469 C 142.117188 99.015625 142.0625 99.433594 142.054688 99.855469 C 142.046875 100.277344 142.085938 100.695312 142.171875 101.109375 C 142.253906 101.523438 142.382812 101.925781 142.558594 102.308594 C 142.730469 102.695312 142.945312 103.058594 143.199219 103.394531 C 143.453125 103.730469 143.742188 104.039062 144.066406 104.3125 C 144.386719 104.585938 144.734375 104.820312 145.109375 105.015625 C 145.351562 105.132812 145.476562 105.328125 145.480469 105.597656 L 145.480469 122.101562 C 145.476562 122.640625 145.542969 123.171875 145.683594 123.695312 L 152.921875 151.5625 C 152.984375 151.820312 152.96875 152.078125 152.867188 152.328125 L 142.609375 178.042969 C 142.527344 178.257812 142.527344 178.46875 142.609375 178.683594 C 142.691406 178.894531 142.835938 179.050781 143.039062 179.152344 L 162.582031 188.769531 C 162.820312 188.898438 162.957031 189.09375 162.996094 189.359375 C 163.050781 189.71875 163.140625 190.066406 163.261719 190.40625 C 163.386719 190.742188 163.539062 191.066406 163.722656 191.378906 C 163.910156 191.6875 164.121094 191.976562 164.359375 192.246094 C 164.601562 192.515625 164.863281 192.761719 165.148438 192.980469 C 165.433594 193.199219 165.738281 193.390625 166.0625 193.550781 C 166.386719 193.714844 166.71875 193.84375 167.066406 193.941406 C 167.414062 194.039062 167.765625 194.101562 168.125 194.132812 C 168.488281 194.164062 168.84375 194.160156 169.203125 194.121094 C 169.5625 194.082031 169.914062 194.011719 170.257812 193.90625 C 170.605469 193.800781 170.9375 193.664062 171.253906 193.496094 C 171.574219 193.328125 171.875 193.128906 172.15625 192.902344 C 172.4375 192.679688 172.695312 192.429688 172.929688 192.152344 C 173.164062 191.878906 173.367188 191.585938 173.546875 191.269531 C 173.722656 190.957031 173.871094 190.628906 173.984375 190.289062 C 174.101562 189.945312 174.183594 189.597656 174.230469 189.238281 C 174.28125 188.882812 174.292969 188.523438 174.273438 188.160156 C 174.253906 187.800781 174.203125 187.445312 174.113281 187.097656 C 174.027344 186.746094 173.90625 186.40625 173.753906 186.082031 C 173.605469 185.753906 173.421875 185.445312 173.210938 185.152344 C 173 184.859375 172.765625 184.589844 172.503906 184.339844 C 172.238281 184.09375 171.957031 183.871094 171.652344 183.679688 C 171.347656 183.484375 171.027344 183.320312 170.691406 183.1875 C 170.359375 183.054688 170.011719 182.957031 169.660156 182.890625 C 169.304688 182.824219 168.945312 182.789062 168.585938 182.792969 Z M 147.75 97.730469 C 148.054688 97.730469 148.347656 97.789062 148.628906 97.902344 C 148.910156 98.019531 149.160156 98.183594 149.375 98.398438 C 149.589844 98.613281 149.757812 98.859375 149.875 99.140625 C 149.992188 99.417969 150.050781 99.710938 150.050781 100.015625 C 150.050781 100.320312 149.992188 100.613281 149.878906 100.894531 C 149.761719 101.175781 149.597656 101.421875 149.382812 101.636719 C 149.167969 101.851562 148.921875 102.019531 148.640625 102.136719 C 148.359375 102.253906 148.066406 102.3125 147.761719 102.3125 C 147.460938 102.3125 147.167969 102.253906 146.886719 102.136719 C 146.605469 102.023438 146.359375 101.855469 146.144531 101.640625 C 145.925781 101.425781 145.761719 101.179688 145.644531 100.898438 C 145.527344 100.617188 145.472656 100.324219 145.472656 100.023438 C 145.46875 99.71875 145.527344 99.425781 145.640625 99.144531 C 145.757812 98.867188 145.921875 98.617188 146.136719 98.402344 C 146.351562 98.1875 146.597656 98.023438 146.875 97.90625 C 147.15625 97.789062 147.449219 97.730469 147.75 97.730469 Z M 168.59375 190.769531 C 168.289062 190.769531 168 190.714844 167.71875 190.597656 C 167.4375 190.484375 167.1875 190.320312 166.972656 190.105469 C 166.757812 189.890625 166.589844 189.644531 166.472656 189.363281 C 166.355469 189.082031 166.296875 188.789062 166.296875 188.484375 C 166.296875 188.183594 166.351562 187.890625 166.46875 187.609375 C 166.585938 187.328125 166.75 187.078125 166.964844 186.863281 C 167.179688 186.648438 167.425781 186.484375 167.707031 186.367188 C 167.988281 186.25 168.277344 186.191406 168.582031 186.191406 C 168.886719 186.191406 169.179688 186.246094 169.460938 186.363281 C 169.742188 186.480469 169.988281 186.644531 170.203125 186.859375 C 170.417969 187.074219 170.585938 187.324219 170.699219 187.601562 C 170.816406 187.882812 170.875 188.175781 170.875 188.480469 C 170.875 188.785156 170.816406 189.074219 170.703125 189.355469 C 170.585938 189.632812 170.421875 189.882812 170.207031 190.097656 C 169.992188 190.3125 169.746094 190.476562 169.46875 190.59375 C 169.1875 190.710938 168.898438 190.769531 168.59375 190.769531 Z M 168.59375 190.769531 " fill-opacity="1" fill-rule="nonzero"/><path fill="#000000" d="M 159.949219 116.527344 C 159.941406 116.796875 159.820312 116.988281 159.578125 117.109375 C 159.203125 117.304688 158.855469 117.539062 158.53125 117.8125 C 158.210938 118.085938 157.921875 118.390625 157.667969 118.730469 C 157.414062 119.066406 157.199219 119.425781 157.027344 119.8125 C 156.851562 120.199219 156.722656 120.597656 156.636719 121.011719 C 156.554688 121.425781 156.515625 121.84375 156.523438 122.265625 C 156.53125 122.691406 156.585938 123.105469 156.6875 123.515625 C 156.789062 123.925781 156.933594 124.320312 157.121094 124.699219 C 157.308594 125.078125 157.539062 125.429688 157.804688 125.757812 C 158.070312 126.085938 158.371094 126.378906 158.703125 126.640625 C 159.035156 126.902344 159.394531 127.121094 159.777344 127.304688 C 160.15625 127.484375 160.554688 127.621094 160.96875 127.714844 C 161.378906 127.808594 161.796875 127.855469 162.21875 127.855469 C 162.640625 127.855469 163.058594 127.808594 163.472656 127.714844 C 163.882812 127.621094 164.28125 127.484375 164.664062 127.304688 C 165.042969 127.121094 165.402344 126.902344 165.734375 126.640625 C 166.066406 126.378906 166.367188 126.085938 166.632812 125.757812 C 166.902344 125.429688 167.128906 125.078125 167.316406 124.699219 C 167.507812 124.320312 167.652344 123.925781 167.75 123.515625 C 167.851562 123.105469 167.90625 122.691406 167.914062 122.265625 C 167.921875 121.84375 167.886719 121.425781 167.800781 121.011719 C 167.714844 120.597656 167.585938 120.199219 167.414062 119.8125 C 167.238281 119.425781 167.023438 119.066406 166.769531 118.730469 C 166.515625 118.390625 166.226562 118.085938 165.90625 117.8125 C 165.582031 117.539062 165.234375 117.304688 164.859375 117.109375 C 164.621094 116.988281 164.496094 116.796875 164.492188 116.527344 L 164.492188 97.0625 C 164.492188 96.796875 164.589844 96.570312 164.78125 96.382812 L 173.023438 88.539062 C 173.226562 88.355469 173.457031 88.3125 173.710938 88.40625 C 174.089844 88.535156 174.476562 88.621094 174.875 88.667969 C 175.269531 88.714844 175.667969 88.71875 176.066406 88.679688 C 176.464844 88.644531 176.851562 88.566406 177.234375 88.445312 C 177.617188 88.324219 177.980469 88.167969 178.328125 87.972656 C 178.675781 87.773438 179 87.542969 179.300781 87.28125 C 179.597656 87.015625 179.867188 86.722656 180.105469 86.402344 C 180.34375 86.082031 180.542969 85.738281 180.710938 85.375 C 180.875 85.011719 181 84.632812 181.085938 84.242188 C 181.175781 83.851562 181.21875 83.457031 181.222656 83.058594 C 181.226562 82.660156 181.1875 82.265625 181.105469 81.871094 C 181.023438 81.480469 180.90625 81.101562 180.746094 80.734375 C 180.585938 80.371094 180.386719 80.023438 180.15625 79.699219 C 179.921875 79.375 179.660156 79.078125 179.363281 78.808594 C 179.066406 78.539062 178.746094 78.304688 178.402344 78.101562 C 178.058594 77.902344 177.695312 77.738281 177.316406 77.613281 C 176.9375 77.488281 176.546875 77.402344 176.152344 77.359375 C 175.753906 77.316406 175.355469 77.316406 174.957031 77.355469 C 174.5625 77.394531 174.171875 77.476562 173.792969 77.601562 C 173.410156 77.722656 173.046875 77.882812 172.703125 78.082031 C 172.355469 78.28125 172.03125 78.511719 171.734375 78.78125 C 171.4375 79.046875 171.171875 79.339844 170.9375 79.664062 C 170.699219 79.988281 170.503906 80.332031 170.339844 80.695312 C 170.175781 81.0625 170.054688 81.4375 169.96875 81.828125 C 169.886719 82.21875 169.84375 82.617188 169.84375 83.015625 C 169.847656 83.550781 169.925781 84.070312 170.082031 84.582031 C 170.160156 84.835938 170.105469 85.050781 169.914062 85.234375 L 160.519531 94.15625 C 160.125 94.527344 159.929688 94.980469 159.929688 95.519531 Z M 175.488281 80.734375 C 175.792969 80.734375 176.085938 80.789062 176.367188 80.90625 C 176.648438 81.019531 176.898438 81.1875 177.113281 81.402344 C 177.328125 81.617188 177.496094 81.863281 177.613281 82.144531 C 177.730469 82.425781 177.789062 82.71875 177.789062 83.019531 C 177.789062 83.324219 177.730469 83.617188 177.613281 83.898438 C 177.496094 84.179688 177.332031 84.429688 177.117188 84.644531 C 176.902344 84.859375 176.652344 85.023438 176.371094 85.140625 C 176.09375 85.257812 175.800781 85.3125 175.496094 85.3125 C 175.191406 85.3125 174.898438 85.253906 174.617188 85.136719 C 174.335938 85.019531 174.089844 84.855469 173.875 84.640625 C 173.660156 84.421875 173.496094 84.175781 173.378906 83.894531 C 173.265625 83.613281 173.207031 83.320312 173.207031 83.015625 C 173.207031 82.710938 173.265625 82.421875 173.382812 82.140625 C 173.496094 81.863281 173.664062 81.617188 173.875 81.402344 C 174.089844 81.1875 174.335938 81.023438 174.617188 80.90625 C 174.894531 80.792969 175.1875 80.734375 175.488281 80.734375 Z M 162.21875 124.425781 C 161.914062 124.425781 161.621094 124.371094 161.339844 124.253906 C 161.058594 124.140625 160.8125 123.972656 160.597656 123.761719 C 160.378906 123.546875 160.214844 123.296875 160.097656 123.015625 C 159.980469 122.734375 159.921875 122.445312 159.921875 122.140625 C 159.921875 121.835938 159.980469 121.542969 160.09375 121.261719 C 160.210938 120.980469 160.375 120.730469 160.589844 120.515625 C 160.808594 120.300781 161.054688 120.136719 161.335938 120.019531 C 161.617188 119.902344 161.910156 119.847656 162.214844 119.847656 C 162.515625 119.847656 162.808594 119.90625 163.089844 120.023438 C 163.371094 120.140625 163.617188 120.304688 163.832031 120.519531 C 164.046875 120.738281 164.214844 120.984375 164.328125 121.265625 C 164.445312 121.546875 164.5 121.839844 164.5 122.144531 C 164.5 122.449219 164.441406 122.738281 164.328125 123.019531 C 164.210938 123.296875 164.046875 123.542969 163.832031 123.757812 C 163.617188 123.972656 163.371094 124.136719 163.09375 124.253906 C 162.8125 124.367188 162.523438 124.425781 162.21875 124.425781 Z M 162.21875 124.425781 " fill-opacity="1" fill-rule="nonzero"/><path fill="#000000" d="M 216.355469 108.011719 C 216.355469 108.359375 216.386719 108.707031 216.449219 109.046875 C 216.511719 109.390625 216.605469 109.726562 216.730469 110.054688 C 216.855469 110.378906 217.007812 110.691406 217.191406 110.988281 C 217.371094 111.289062 217.578125 111.566406 217.8125 111.824219 C 218.046875 112.085938 218.300781 112.320312 218.578125 112.535156 C 218.855469 112.746094 219.148438 112.933594 219.460938 113.09375 C 219.769531 113.25 220.09375 113.378906 220.429688 113.480469 C 220.765625 113.578125 221.105469 113.644531 221.453125 113.683594 C 221.800781 113.71875 222.148438 113.722656 222.496094 113.695312 C 222.84375 113.667969 223.183594 113.609375 223.523438 113.515625 C 223.859375 113.425781 224.1875 113.304688 224.5 113.15625 C 224.816406 113.003906 225.113281 112.828125 225.394531 112.621094 C 225.679688 112.414062 225.9375 112.183594 226.179688 111.929688 C 226.417969 111.675781 226.632812 111.402344 226.824219 111.109375 C 227.011719 110.816406 227.171875 110.507812 227.304688 110.1875 C 227.4375 109.863281 227.539062 109.53125 227.613281 109.1875 C 227.683594 108.847656 227.722656 108.5 227.730469 108.152344 C 227.738281 107.804688 227.714844 107.457031 227.660156 107.113281 C 227.601562 106.765625 227.515625 106.429688 227.398438 106.101562 C 227.28125 105.773438 227.132812 105.457031 226.957031 105.15625 C 226.78125 104.855469 226.578125 104.570312 226.351562 104.308594 C 226.125 104.042969 225.875 103.800781 225.601562 103.582031 C 225.328125 103.363281 225.039062 103.171875 224.730469 103.007812 C 224.421875 102.84375 224.101562 102.707031 223.769531 102.601562 C 223.503906 102.53125 223.3125 102.367188 223.199219 102.117188 L 219.402344 94.136719 C 219.296875 93.914062 219.140625 93.738281 218.933594 93.605469 C 218.722656 93.472656 218.496094 93.40625 218.25 93.40625 L 208.378906 93.40625 C 208.113281 93.398438 207.917969 93.273438 207.796875 93.039062 C 207.601562 92.664062 207.367188 92.316406 207.09375 91.996094 C 206.820312 91.671875 206.515625 91.386719 206.179688 91.132812 C 205.839844 90.878906 205.480469 90.664062 205.09375 90.492188 C 204.710938 90.320312 204.3125 90.191406 203.898438 90.105469 C 203.484375 90.019531 203.066406 89.984375 202.644531 89.992188 C 202.222656 90 201.808594 90.054688 201.398438 90.15625 C 200.988281 90.257812 200.597656 90.402344 200.21875 90.589844 C 199.839844 90.777344 199.488281 91.003906 199.164062 91.273438 C 198.835938 91.539062 198.542969 91.839844 198.28125 92.171875 C 198.023438 92.503906 197.800781 92.859375 197.621094 93.242188 C 197.4375 93.621094 197.300781 94.019531 197.210938 94.429688 C 197.117188 94.839844 197.070312 95.257812 197.070312 95.679688 C 197.070312 96.101562 197.117188 96.519531 197.210938 96.929688 C 197.300781 97.339844 197.4375 97.738281 197.621094 98.121094 C 197.800781 98.5 198.023438 98.855469 198.28125 99.1875 C 198.542969 99.519531 198.835938 99.820312 199.164062 100.085938 C 199.488281 100.355469 199.839844 100.582031 200.21875 100.769531 C 200.597656 100.957031 200.988281 101.101562 201.398438 101.203125 C 201.808594 101.304688 202.222656 101.359375 202.644531 101.367188 C 203.066406 101.375 203.484375 101.339844 203.898438 101.253906 C 204.3125 101.167969 204.710938 101.039062 205.09375 100.867188 C 205.480469 100.695312 205.839844 100.480469 206.179688 100.226562 C 206.515625 99.972656 206.820312 99.6875 207.09375 99.363281 C 207.367188 99.042969 207.601562 98.695312 207.796875 98.320312 C 207.914062 98.082031 208.109375 97.957031 208.378906 97.953125 L 215.792969 97.953125 C 216.058594 97.953125 216.25 98.074219 216.363281 98.3125 L 218.636719 103.015625 C 218.683594 103.125 218.695312 103.238281 218.664062 103.351562 C 218.636719 103.46875 218.574219 103.5625 218.476562 103.632812 C 217.8125 104.164062 217.292969 104.816406 216.921875 105.582031 C 216.550781 106.347656 216.363281 107.15625 216.355469 108.011719 Z M 205.058594 95.679688 C 205.058594 95.984375 205 96.277344 204.882812 96.558594 C 204.765625 96.839844 204.601562 97.085938 204.386719 97.300781 C 204.171875 97.515625 203.921875 97.679688 203.640625 97.796875 C 203.359375 97.914062 203.066406 97.96875 202.761719 97.96875 C 202.460938 97.96875 202.167969 97.910156 201.886719 97.792969 C 201.605469 97.675781 201.359375 97.507812 201.144531 97.292969 C 200.929688 97.078125 200.765625 96.828125 200.648438 96.546875 C 200.535156 96.265625 200.476562 95.972656 200.480469 95.667969 C 200.480469 95.363281 200.539062 95.070312 200.660156 94.792969 C 200.777344 94.511719 200.945312 94.265625 201.160156 94.050781 C 201.378906 93.835938 201.625 93.671875 201.90625 93.558594 C 202.191406 93.445312 202.484375 93.386719 202.785156 93.390625 C 203.089844 93.390625 203.378906 93.453125 203.65625 93.570312 C 203.933594 93.683594 204.179688 93.851562 204.390625 94.0625 C 204.605469 94.277344 204.769531 94.523438 204.882812 94.800781 C 205 95.078125 205.058594 95.371094 205.058594 95.671875 Z M 222.042969 105.730469 C 222.347656 105.730469 222.640625 105.785156 222.921875 105.902344 C 223.199219 106.019531 223.449219 106.183594 223.664062 106.398438 C 223.878906 106.613281 224.042969 106.863281 224.160156 107.140625 C 224.277344 107.421875 224.332031 107.714844 224.332031 108.019531 C 224.332031 108.324219 224.277344 108.613281 224.160156 108.894531 C 224.042969 109.175781 223.878906 109.421875 223.664062 109.636719 C 223.449219 109.851562 223.199219 110.019531 222.921875 110.132812 C 222.640625 110.25 222.347656 110.308594 222.042969 110.308594 C 221.742188 110.308594 221.449219 110.25 221.167969 110.132812 C 220.886719 110.019531 220.640625 109.851562 220.425781 109.636719 C 220.210938 109.421875 220.046875 109.175781 219.929688 108.894531 C 219.8125 108.613281 219.753906 108.324219 219.753906 108.019531 C 219.753906 107.714844 219.808594 107.421875 219.925781 107.136719 C 220.039062 106.855469 220.203125 106.605469 220.417969 106.390625 C 220.636719 106.175781 220.882812 106.007812 221.164062 105.894531 C 221.445312 105.777344 221.738281 105.71875 222.042969 105.71875 Z M 222.042969 105.730469 " fill-opacity="1" fill-rule="nonzero"/><g fill="#000000" fill-opacity="1"><g transform="translate(116.597745, 248.814038)"><g><path d="M 17.40625 0 L 16.109375 -3.9375 L 7.6875 -3.9375 L 6.375 0 L 0.296875 0 L 8.453125 -23.515625 L 15.40625 -23.515625 L 23.515625 0 Z M 9.125 -8.28125 L 14.671875 -8.28125 L 11.890625 -16.640625 Z M 9.125 -8.28125 "/></g></g></g><g fill="#000000" fill-opacity="1"><g transform="translate(139.580968, 248.814038)"><g><path d="M 8.21875 -18.640625 L 8.21875 -15.171875 C 9.550781 -17.617188 11.332031 -18.84375 13.5625 -18.84375 L 13.5625 -13.03125 L 12.15625 -13.03125 C 10.84375 -13.03125 9.859375 -12.71875 9.203125 -12.09375 C 8.546875 -11.46875 8.21875 -10.375 8.21875 -8.8125 L 8.21875 0 L 2.5 0 L 2.5 -18.640625 Z M 8.21875 -18.640625 "/></g></g></g><g fill="#000000" fill-opacity="1"><g transform="translate(152.909876, 248.814038)"><g><path d="M 10.421875 -4.84375 L 12.453125 -4.84375 L 12.453125 0 L 9.546875 0 C 7.453125 0 5.832031 -0.457031 4.6875 -1.375 C 3.539062 -2.300781 2.96875 -3.890625 2.96875 -6.140625 L 2.96875 -13.890625 L 1.234375 -13.890625 L 1.234375 -18.640625 L 2.96875 -18.640625 L 2.96875 -23.1875 L 8.6875 -23.1875 L 8.6875 -18.640625 L 12.421875 -18.640625 L 12.421875 -13.890625 L 8.6875 -13.890625 L 8.6875 -6.140625 C 8.6875 -5.273438 9.265625 -4.84375 10.421875 -4.84375 Z M 10.421875 -4.84375 "/></g></g></g><g fill="#000000" fill-opacity="1"><g transform="translate(165.938131, 248.814038)"><g><path d="M 7.71875 -20.75 C 7.070312 -20.101562 6.28125 -19.78125 5.34375 -19.78125 C 4.40625 -19.78125 3.613281 -20.101562 2.96875 -20.75 C 2.320312 -21.394531 2 -22.1875 2 -23.125 C 2 -24.070312 2.320312 -24.867188 2.96875 -25.515625 C 3.613281 -26.160156 4.40625 -26.484375 5.34375 -26.484375 C 6.28125 -26.484375 7.070312 -26.160156 7.71875 -25.515625 C 8.363281 -24.867188 8.6875 -24.070312 8.6875 -23.125 C 8.6875 -22.1875 8.363281 -21.394531 7.71875 -20.75 Z M 2.5 0 L 2.5 -18.640625 L 8.21875 -18.640625 L 8.21875 0 Z M 2.5 0 "/></g></g></g><g fill="#000000" fill-opacity="1"><g transform="translate(175.826231, 248.814038)"><g><path d="M 10.65625 -18.640625 L 10.65625 -13.890625 L 8.28125 -13.890625 L 8.28125 0 L 2.578125 0 L 2.578125 -13.890625 L 0.828125 -13.890625 L 0.828125 -18.640625 L 2.578125 -18.640625 L 2.578125 -19.34375 C 2.578125 -21.707031 3.203125 -23.429688 4.453125 -24.515625 C 5.710938 -25.609375 7.691406 -26.15625 10.390625 -26.15625 L 10.390625 -21.3125 C 9.628906 -21.3125 9.085938 -21.164062 8.765625 -20.875 C 8.441406 -20.582031 8.28125 -20.070312 8.28125 -19.34375 L 8.28125 -18.640625 Z M 10.65625 -18.640625 "/></g></g></g><g fill="#000000" fill-opacity="1"><g transform="translate(186.215423, 248.814038)"><g><path d="M 7.71875 -20.75 C 7.070312 -20.101562 6.28125 -19.78125 5.34375 -19.78125 C 4.40625 -19.78125 3.613281 -20.101562 2.96875 -20.75 C 2.320312 -21.394531 2 -22.1875 2 -23.125 C 2 -24.070312 2.320312 -24.867188 2.96875 -25.515625 C 3.613281 -26.160156 4.40625 -26.484375 5.34375 -26.484375 C 6.28125 -26.484375 7.070312 -26.160156 7.71875 -25.515625 C 8.363281 -24.867188 8.6875 -24.070312 8.6875 -23.125 C 8.6875 -22.1875 8.363281 -21.394531 7.71875 -20.75 Z M 2.5 0 L 2.5 -18.640625 L 8.21875 -18.640625 L 8.21875 0 Z M 2.5 0 "/></g></g></g><g fill="#000000" fill-opacity="1"><g transform="translate(196.103523, 248.814038)"><g><path d="M 3.71875 -2.375 C 2 -4.113281 1.140625 -6.425781 1.140625 -9.3125 C 1.140625 -12.207031 2 -14.519531 3.71875 -16.25 C 5.445312 -17.976562 7.679688 -18.84375 10.421875 -18.84375 C 12.691406 -18.84375 14.617188 -18.28125 16.203125 -17.15625 C 17.785156 -16.03125 18.832031 -14.421875 19.34375 -12.328125 L 13.15625 -12.328125 C 12.625 -13.441406 11.75 -14 10.53125 -14 C 9.320312 -14 8.421875 -13.566406 7.828125 -12.703125 C 7.242188 -11.847656 6.953125 -10.71875 6.953125 -9.3125 C 6.953125 -7.914062 7.242188 -6.785156 7.828125 -5.921875 C 8.421875 -5.066406 9.285156 -4.640625 10.421875 -4.640625 C 11.128906 -4.640625 11.679688 -4.757812 12.078125 -5 C 12.484375 -5.25 12.84375 -5.6875 13.15625 -6.3125 L 19.34375 -6.3125 C 18.832031 -4.3125 17.773438 -2.71875 16.171875 -1.53125 C 14.566406 -0.351562 12.648438 0.234375 10.421875 0.234375 C 7.679688 0.234375 5.445312 -0.632812 3.71875 -2.375 Z M 3.71875 -2.375 "/></g></g></g><g fill="#000000" fill-opacity="1"><g transform="translate(215.311879, 248.814038)"><g><path d="M 7.71875 -20.75 C 7.070312 -20.101562 6.28125 -19.78125 5.34375 -19.78125 C 4.40625 -19.78125 3.613281 -20.101562 2.96875 -20.75 C 2.320312 -21.394531 2 -22.1875 2 -23.125 C 2 -24.070312 2.320312 -24.867188 2.96875 -25.515625 C 3.613281 -26.160156 4.40625 -26.484375 5.34375 -26.484375 C 6.28125 -26.484375 7.070312 -26.160156 7.71875 -25.515625 C 8.363281 -24.867188 8.6875 -24.070312 8.6875 -23.125 C 8.6875 -22.1875 8.363281 -21.394531 7.71875 -20.75 Z M 2.5 0 L 2.5 -18.640625 L 8.21875 -18.640625 L 8.21875 0 Z M 2.5 0 "/></g></g></g><g fill="#000000" fill-opacity="1"><g transform="translate(225.199979, 248.814038)"><g><path d="M 13.859375 -5.90625 C 14.679688 -6.707031 15.09375 -7.84375 15.09375 -9.3125 C 15.09375 -10.789062 14.679688 -11.921875 13.859375 -12.703125 C 13.035156 -13.492188 12.085938 -13.890625 11.015625 -13.890625 C 9.953125 -13.890625 9.007812 -13.488281 8.1875 -12.6875 C 7.363281 -11.882812 6.953125 -10.75 6.953125 -9.28125 C 6.953125 -7.8125 7.363281 -6.679688 8.1875 -5.890625 C 9.007812 -5.097656 9.953125 -4.703125 11.015625 -4.703125 C 12.085938 -4.703125 13.035156 -5.101562 13.859375 -5.90625 Z M 3.609375 -2.4375 C 1.960938 -4.21875 1.140625 -6.5 1.140625 -9.28125 C 1.140625 -12.070312 1.960938 -14.363281 3.609375 -16.15625 C 5.253906 -17.945312 7.265625 -18.84375 9.640625 -18.84375 C 12.015625 -18.84375 13.832031 -17.960938 15.09375 -16.203125 L 15.09375 -18.640625 L 20.8125 -18.640625 L 20.8125 0 L 15.09375 0 L 15.09375 -2.703125 C 13.71875 -0.742188 11.867188 0.234375 9.546875 0.234375 C 7.234375 0.234375 5.253906 -0.65625 3.609375 -2.4375 Z M 3.609375 -2.4375 "/></g></g></g><g fill="#000000" fill-opacity="1"><g transform="translate(247.682112, 248.814038)"><g><path d="M 2.5 0 L 2.5 -24.71875 L 8.21875 -24.71875 L 8.21875 0 Z M 2.5 0 "/></g></g></g><g fill="#000000" fill-opacity="1"><g transform="translate(86.978617, 284.670193)"><g><path d="M 2.5 0 L 2.5 -23.453125 L 8.21875 -23.453125 L 8.21875 0 Z M 2.5 0 "/></g></g></g><g fill="#000000" fill-opacity="1"><g transform="translate(96.866717, 284.670193)"><g><path d="M 8.21875 -18.640625 L 8.21875 -15.90625 C 9.394531 -17.863281 11.273438 -18.84375 13.859375 -18.84375 C 16.003906 -18.84375 17.738281 -18.128906 19.0625 -16.703125 C 20.382812 -15.273438 21.046875 -13.335938 21.046875 -10.890625 L 21.046875 0 L 15.359375 0 L 15.359375 -10.125 C 15.359375 -11.320312 15.039062 -12.25 14.40625 -12.90625 C 13.78125 -13.5625 12.910156 -13.890625 11.796875 -13.890625 C 10.679688 -13.890625 9.804688 -13.5625 9.171875 -12.90625 C 8.535156 -12.25 8.21875 -11.320312 8.21875 -10.125 L 8.21875 0 L 2.5 0 L 2.5 -18.640625 Z M 8.21875 -18.640625 "/></g></g></g><g fill="#000000" fill-opacity="1"><g transform="translate(119.415664, 284.670193)"><g><path d="M 10.421875 -4.84375 L 12.453125 -4.84375 L 12.453125 0 L 9.546875 0 C 7.453125 0 5.832031 -0.457031 4.6875 -1.375 C 3.539062 -2.300781 2.96875 -3.890625 2.96875 -6.140625 L 2.96875 -13.890625 L 1.234375 -13.890625 L 1.234375 -18.640625 L 2.96875 -18.640625 L 2.96875 -23.1875 L 8.6875 -23.1875 L 8.6875 -18.640625 L 12.421875 -18.640625 L 12.421875 -13.890625 L 8.6875 -13.890625 L 8.6875 -6.140625 C 8.6875 -5.273438 9.265625 -4.84375 10.421875 -4.84375 Z M 10.421875 -4.84375 "/></g></g></g><g fill="#000000" fill-opacity="1"><g transform="translate(132.443919, 284.670193)"><g><path d="M 10.421875 0.234375 C 7.703125 0.234375 5.472656 -0.640625 3.734375 -2.390625 C 2.003906 -4.140625 1.140625 -6.460938 1.140625 -9.359375 C 1.140625 -12.253906 2 -14.554688 3.71875 -16.265625 C 5.445312 -17.984375 7.679688 -18.84375 10.421875 -18.84375 C 13.160156 -18.84375 15.429688 -17.992188 17.234375 -16.296875 C 19.035156 -14.609375 19.9375 -12.257812 19.9375 -9.25 C 19.9375 -8.601562 19.894531 -8.003906 19.8125 -7.453125 L 6.984375 -7.453125 C 7.097656 -6.628906 7.460938 -5.953125 8.078125 -5.421875 C 8.703125 -4.898438 9.375 -4.640625 10.09375 -4.640625 C 10.820312 -4.640625 11.363281 -4.710938 11.71875 -4.859375 C 12.082031 -5.003906 12.347656 -5.148438 12.515625 -5.296875 C 12.679688 -5.441406 12.894531 -5.679688 13.15625 -6.015625 L 19.34375 -6.015625 C 18.8125 -4.140625 17.742188 -2.628906 16.140625 -1.484375 C 14.535156 -0.335938 12.628906 0.234375 10.421875 0.234375 Z M 14 -11.03125 C 13.90625 -11.894531 13.523438 -12.597656 12.859375 -13.140625 C 12.191406 -13.691406 11.398438 -13.96875 10.484375 -13.96875 C 9.578125 -13.96875 8.8125 -13.691406 8.1875 -13.140625 C 7.5625 -12.597656 7.171875 -11.894531 7.015625 -11.03125 Z M 14 -11.03125 "/></g></g></g><g fill="#000000" fill-opacity="1"><g transform="translate(152.721264, 284.670193)"><g><path d="M 2.5 0 L 2.5 -24.71875 L 8.21875 -24.71875 L 8.21875 0 Z M 2.5 0 "/></g></g></g><g fill="#000000" fill-opacity="1"><g transform="translate(162.609365, 284.670193)"><g><path d="M 2.5 0 L 2.5 -24.71875 L 8.21875 -24.71875 L 8.21875 0 Z M 2.5 0 "/></g></g></g><g fill="#000000" fill-opacity="1"><g transform="translate(172.497465, 284.670193)"><g><path d="M 7.71875 -20.75 C 7.070312 -20.101562 6.28125 -19.78125 5.34375 -19.78125 C 4.40625 -19.78125 3.613281 -20.101562 2.96875 -20.75 C 2.320312 -21.394531 2 -22.1875 2 -23.125 C 2 -24.070312 2.320312 -24.867188 2.96875 -25.515625 C 3.613281 -26.160156 4.40625 -26.484375 5.34375 -26.484375 C 6.28125 -26.484375 7.070312 -26.160156 7.71875 -25.515625 C 8.363281 -24.867188 8.6875 -24.070312 8.6875 -23.125 C 8.6875 -22.1875 8.363281 -21.394531 7.71875 -20.75 Z M 2.5 0 L 2.5 -18.640625 L 8.21875 -18.640625 L 8.21875 0 Z M 2.5 0 "/></g></g></g><g fill="#000000" fill-opacity="1"><g transform="translate(182.385566, 284.670193)"><g><path d="M 3.609375 -2.4375 C 1.960938 -4.21875 1.140625 -6.5 1.140625 -9.28125 C 1.140625 -12.070312 1.960938 -14.363281 3.609375 -16.15625 C 5.253906 -17.945312 7.265625 -18.84375 9.640625 -18.84375 C 12.015625 -18.84375 13.832031 -17.960938 15.09375 -16.203125 L 15.09375 -18.640625 L 20.8125 -18.640625 L 20.8125 -0.09375 C 20.8125 2.507812 20.097656 4.675781 18.671875 6.40625 C 17.960938 7.300781 16.988281 7.992188 15.75 8.484375 C 14.507812 8.972656 13.078125 9.21875 11.453125 9.21875 C 8.609375 9.21875 6.347656 8.640625 4.671875 7.484375 C 3.003906 6.328125 2.0625 4.554688 1.84375 2.171875 L 7.453125 2.171875 C 7.984375 3.578125 9.316406 4.28125 11.453125 4.28125 C 12.503906 4.28125 13.375 3.925781 14.0625 3.21875 C 14.75 2.519531 15.09375 1.414062 15.09375 -0.09375 L 15.09375 -2.703125 C 13.71875 -0.742188 11.867188 0.234375 9.546875 0.234375 C 7.234375 0.234375 5.253906 -0.65625 3.609375 -2.4375 Z M 13.859375 -5.90625 C 14.679688 -6.707031 15.09375 -7.84375 15.09375 -9.3125 C 15.09375 -10.789062 14.679688 -11.921875 13.859375 -12.703125 C 13.035156 -13.492188 12.085938 -13.890625 11.015625 -13.890625 C 9.953125 -13.890625 9.007812 -13.488281 8.1875 -12.6875 C 7.363281 -11.882812 6.953125 -10.75 6.953125 -9.28125 C 6.953125 -7.8125 7.363281 -6.679688 8.1875 -5.890625 C 9.007812 -5.097656 9.953125 -4.703125 11.015625 -4.703125 C 12.085938 -4.703125 13.035156 -5.101562 13.859375 -5.90625 Z M 13.859375 -5.90625 "/></g></g></g><g fill="#000000" fill-opacity="1"><g transform="translate(204.867692, 284.670193)"><g><path d="M 10.421875 0.234375 C 7.703125 0.234375 5.472656 -0.640625 3.734375 -2.390625 C 2.003906 -4.140625 1.140625 -6.460938 1.140625 -9.359375 C 1.140625 -12.253906 2 -14.554688 3.71875 -16.265625 C 5.445312 -17.984375 7.679688 -18.84375 10.421875 -18.84375 C 13.160156 -18.84375 15.429688 -17.992188 17.234375 -16.296875 C 19.035156 -14.609375 19.9375 -12.257812 19.9375 -9.25 C 19.9375 -8.601562 19.894531 -8.003906 19.8125 -7.453125 L 6.984375 -7.453125 C 7.097656 -6.628906 7.460938 -5.953125 8.078125 -5.421875 C 8.703125 -4.898438 9.375 -4.640625 10.09375 -4.640625 C 10.820312 -4.640625 11.363281 -4.710938 11.71875 -4.859375 C 12.082031 -5.003906 12.347656 -5.148438 12.515625 -5.296875 C 12.679688 -5.441406 12.894531 -5.679688 13.15625 -6.015625 L 19.34375 -6.015625 C 18.8125 -4.140625 17.742188 -2.628906 16.140625 -1.484375 C 14.535156 -0.335938 12.628906 0.234375 10.421875 0.234375 Z M 14 -11.03125 C 13.90625 -11.894531 13.523438 -12.597656 12.859375 -13.140625 C 12.191406 -13.691406 11.398438 -13.96875 10.484375 -13.96875 C 9.578125 -13.96875 8.8125 -13.691406 8.1875 -13.140625 C 7.5625 -12.597656 7.171875 -11.894531 7.015625 -11.03125 Z M 14 -11.03125 "/></g></g></g><g fill="#000000" fill-opacity="1"><g transform="translate(225.145043, 284.670193)"><g><path d="M 8.21875 -18.640625 L 8.21875 -15.90625 C 9.394531 -17.863281 11.273438 -18.84375 13.859375 -18.84375 C 16.003906 -18.84375 17.738281 -18.128906 19.0625 -16.703125 C 20.382812 -15.273438 21.046875 -13.335938 21.046875 -10.890625 L 21.046875 0 L 15.359375 0 L 15.359375 -10.125 C 15.359375 -11.320312 15.039062 -12.25 14.40625 -12.90625 C 13.78125 -13.5625 12.910156 -13.890625 11.796875 -13.890625 C 10.679688 -13.890625 9.804688 -13.5625 9.171875 -12.90625 C 8.535156 -12.25 8.21875 -11.320312 8.21875 -10.125 L 8.21875 0 L 2.5 0 L 2.5 -18.640625 Z M 8.21875 -18.640625 "/></g></g></g><g fill="#000000" fill-opacity="1"><g transform="translate(247.69399, 284.670193)"><g><path d="M 3.71875 -2.375 C 2 -4.113281 1.140625 -6.425781 1.140625 -9.3125 C 1.140625 -12.207031 2 -14.519531 3.71875 -16.25 C 5.445312 -17.976562 7.679688 -18.84375 10.421875 -18.84375 C 12.691406 -18.84375 14.617188 -18.28125 16.203125 -17.15625 C 17.785156 -16.03125 18.832031 -14.421875 19.34375 -12.328125 L 13.15625 -12.328125 C 12.625 -13.441406 11.75 -14 10.53125 -14 C 9.320312 -14 8.421875 -13.566406 7.828125 -12.703125 C 7.242188 -11.847656 6.953125 -10.71875 6.953125 -9.3125 C 6.953125 -7.914062 7.242188 -6.785156 7.828125 -5.921875 C 8.421875 -5.066406 9.285156 -4.640625 10.421875 -4.640625 C 11.128906 -4.640625 11.679688 -4.757812 12.078125 -5 C 12.484375 -5.25 12.84375 -5.6875 13.15625 -6.3125 L 19.34375 -6.3125 C 18.832031 -4.3125 17.773438 -2.71875 16.171875 -1.53125 C 14.566406 -0.351562 12.648438 0.234375 10.421875 0.234375 C 7.679688 0.234375 5.445312 -0.632812 3.71875 -2.375 Z M 3.71875 -2.375 "/></g></g></g><g fill="#000000" fill-opacity="1"><g transform="translate(266.902345, 284.670193)"><g><path d="M 10.421875 0.234375 C 7.703125 0.234375 5.472656 -0.640625 3.734375 -2.390625 C 2.003906 -4.140625 1.140625 -6.460938 1.140625 -9.359375 C 1.140625 -12.253906 2 -14.554688 3.71875 -16.265625 C 5.445312 -17.984375 7.679688 -18.84375 10.421875 -18.84375 C 13.160156 -18.84375 15.429688 -17.992188 17.234375 -16.296875 C 19.035156 -14.609375 19.9375 -12.257812 19.9375 -9.25 C 19.9375 -8.601562 19.894531 -8.003906 19.8125 -7.453125 L 6.984375 -7.453125 C 7.097656 -6.628906 7.460938 -5.953125 8.078125 -5.421875 C 8.703125 -4.898438 9.375 -4.640625 10.09375 -4.640625 C 10.820312 -4.640625 11.363281 -4.710938 11.71875 -4.859375 C 12.082031 -5.003906 12.347656 -5.148438 12.515625 -5.296875 C 12.679688 -5.441406 12.894531 -5.679688 13.15625 -6.015625 L 19.34375 -6.015625 C 18.8125 -4.140625 17.742188 -2.628906 16.140625 -1.484375 C 14.535156 -0.335938 12.628906 0.234375 10.421875 0.234375 Z M 14 -11.03125 C 13.90625 -11.894531 13.523438 -12.597656 12.859375 -13.140625 C 12.191406 -13.691406 11.398438 -13.96875 10.484375 -13.96875 C 9.578125 -13.96875 8.8125 -13.691406 8.1875 -13.140625 C 7.5625 -12.597656 7.171875 -11.894531 7.015625 -11.03125 Z M 14 -11.03125 "/></g></g></g></svg>